<svg width="24" height="24" viewBox="0 0 24 24" fill="none" xmlns="http://www.w3.org/2000/svg">
<path fill-rule="evenodd" clip-rule="evenodd" d="M9.77778 10.1389C10.192 10.1389 10.5278 10.4747 10.5278 10.8889V17.5555C10.5278 17.9697 10.192 18.3055 9.77778 18.3055C9.36356 18.3055 9.02778 17.9697 9.02778 17.5555V10.8889C9.02778 10.4747 9.36356 10.1389 9.77778 10.1389ZM14.2222 10.1389C14.6364 10.1389 14.9722 10.4747 14.9722 10.8889V17.5555C14.9722 17.9697 14.6364 18.3055 14.2222 18.3055C13.808 18.3055 13.4722 17.9697 13.4722 17.5555V10.8889C13.4722 10.4747 13.808 10.1389 14.2222 10.1389Z" fill="black"/>
<path fill-rule="evenodd" clip-rule="evenodd" d="M4.58333 5.99997H19.4167V20.8055C19.4167 22.0482 18.4093 23.0555 17.1667 23.0555H6.83333C5.59069 23.0555 4.58333 22.0482 4.58333 20.8055V5.99997ZM6.08333 7.49997V20.8055C6.08333 21.2197 6.41912 21.5555 6.83333 21.5555H17.1667C17.5809 21.5555 17.9167 21.2197 17.9167 20.8055V7.49997H6.08333Z" fill="black"/>
<path fill-rule="evenodd" clip-rule="evenodd" d="M7.91666 7.49443H16.0833V5.29999C16.0833 3.22892 14.4044 1.54999 12.3333 1.54999H11.6667C9.59559 1.54999 7.91666 3.22892 7.91666 5.29999V7.49443ZM9.41666 5.99443V5.29999C9.41666 4.05735 10.424 3.04999 11.6667 3.04999H12.3333C13.576 3.04999 14.5833 4.05735 14.5833 5.29999V5.99443H9.41666Z" fill="black"/>
<path fill-rule="evenodd" clip-rule="evenodd" d="M2.25 6.74998C2.25 6.33577 2.58579 5.99998 3 5.99998H21C21.4142 5.99998 21.75 6.33577 21.75 6.74998C21.75 7.1642 21.4142 7.49998 21 7.49998H3C2.58579 7.49998 2.25 7.1642 2.25 6.74998Z" fill="black"/>
</svg>
