<svg width="24" height="24" viewBox="0 0 24 24" fill="none" xmlns="http://www.w3.org/2000/svg">
<path fill-rule="evenodd" clip-rule="evenodd" d="M12 20.5C16.6944 20.5 20.5 16.6944 20.5 12C20.5 7.30558 16.6944 3.5 12 3.5C7.30558 3.5 3.5 7.30558 3.5 12C3.5 16.6944 7.30558 20.5 12 20.5ZM22 12C22 17.5228 17.5228 22 12 22C6.47715 22 2 17.5228 2 12C2 6.47715 6.47715 2 12 2C17.5228 2 22 6.47715 22 12Z" fill="black"/>
<path fill-rule="evenodd" clip-rule="evenodd" d="M15.3588 8.64124C15.0659 8.34834 14.591 8.34834 14.2981 8.64124L8.64124 14.2981C8.34835 14.591 8.34835 15.0659 8.64124 15.3588C8.93414 15.6516 9.40901 15.6516 9.7019 15.3588L15.3588 9.7019C15.6517 9.409 15.6517 8.93413 15.3588 8.64124Z" fill="black"/>
<path fill-rule="evenodd" clip-rule="evenodd" d="M8.64124 8.64124C8.93414 8.34834 9.40901 8.34834 9.7019 8.64124L15.3588 14.2981C15.6517 14.591 15.6517 15.0659 15.3588 15.3588C15.0659 15.6516 14.591 15.6516 14.2981 15.3588L8.64124 9.7019C8.34835 9.409 8.34835 8.93413 8.64124 8.64124Z" fill="black"/>
</svg>
