<svg width="24" height="24" viewBox="0 0 24 24" fill="none" xmlns="http://www.w3.org/2000/svg">
<path fill-rule="evenodd" clip-rule="evenodd" d="M8.4684 6.92562C9.18572 6.42545 10.0141 6.07349 10.9091 5.91413V4H13.0909V5.91413C13.9859 6.07349 14.8143 6.42545 15.5316 6.92562L16.8855 5.57176L18.4282 7.11454L17.0744 8.4684C17.5746 9.18572 17.9265 10.0141 18.0859 10.9091H20V13.0909H18.0859C17.9265 13.9859 17.5746 14.8143 17.0744 15.5316L18.4282 16.8855L16.8855 18.4282L15.5316 17.0744C14.8143 17.5746 13.9859 17.9265 13.0909 18.0859V20H10.9091V18.0859C10.0141 17.9265 9.18572 17.5746 8.4684 17.0744L7.11454 18.4282L5.57176 16.8855L6.92562 15.5316C6.42545 14.8143 6.07349 13.9859 5.91413 13.0909H4V10.9091H5.91413C6.07349 10.0141 6.42545 9.18572 6.92562 8.4684L5.57176 7.11454L7.11454 5.57176L8.4684 6.92562ZM5.05328 8.71737L4.5111 8.1752C4.22979 7.89389 4.07176 7.51236 4.07176 7.11454C4.07176 6.71671 4.22979 6.33518 4.5111 6.05387L6.05387 4.5111C6.33518 4.22979 6.71671 4.07176 7.11454 4.07176C7.51236 4.07176 7.89389 4.22979 8.1752 4.5111L8.71737 5.05328C8.94213 4.94692 9.17292 4.85111 9.40909 4.76651V4C9.40909 3.17157 10.0807 2.5 10.9091 2.5H13.0909C13.9193 2.5 14.5909 3.17157 14.5909 4V4.76651C14.8271 4.85111 15.0579 4.94692 15.2826 5.05328L15.8248 4.5111C16.4106 3.92531 17.3603 3.92531 17.9461 4.5111L19.4889 6.05387C19.7702 6.33518 19.9282 6.71671 19.9282 7.11453C19.9282 7.51236 19.7702 7.89389 19.4889 8.1752L18.9467 8.71737C19.0531 8.94213 19.1489 9.17292 19.2335 9.40909H20C20.8284 9.40909 21.5 10.0807 21.5 10.9091V13.0909C21.5 13.9193 20.8284 14.5909 20 14.5909H19.2335C19.1489 14.8271 19.0531 15.0579 18.9467 15.2826L19.4889 15.8248C20.0747 16.4106 20.0747 17.3603 19.4889 17.9461L17.9461 19.4889C17.3603 20.0747 16.4106 20.0747 15.8248 19.4889L15.2826 18.9467C15.0579 19.0531 14.8271 19.1489 14.5909 19.2335V20C14.5909 20.8284 13.9193 21.5 13.0909 21.5H10.9091C10.0807 21.5 9.40909 20.8284 9.40909 20V19.2335C9.17292 19.1489 8.94213 19.0531 8.71737 18.9467L8.1752 19.4889C7.89389 19.7702 7.51236 19.9282 7.11453 19.9282C6.71671 19.9282 6.33518 19.7702 6.05387 19.4889L4.5111 17.9461C3.92531 17.3603 3.92531 16.4106 4.5111 15.8248L5.05328 15.2826C4.94692 15.0579 4.85111 14.8271 4.76651 14.5909H4C3.17157 14.5909 2.5 13.9193 2.5 13.0909V10.9091C2.5 10.0807 3.17157 9.40909 4 9.40909H4.76651C4.85111 9.17292 4.94692 8.94213 5.05328 8.71737Z" fill="black"/>
<path fill-rule="evenodd" clip-rule="evenodd" d="M12 10.25C11.0335 10.25 10.25 11.0335 10.25 12C10.25 12.9665 11.0335 13.75 12 13.75C12.9665 13.75 13.75 12.9665 13.75 12C13.75 11.0335 12.9665 10.25 12 10.25ZM8.75 12C8.75 10.2051 10.2051 8.75 12 8.75C13.7949 8.75 15.25 10.2051 15.25 12C15.25 13.7949 13.7949 15.25 12 15.25C10.2051 15.25 8.75 13.7949 8.75 12Z" fill="black"/>
</svg>
