<svg width="24" height="24" viewBox="0 0 24 24" fill="none" xmlns="http://www.w3.org/2000/svg">
<path fill-rule="evenodd" clip-rule="evenodd" d="M2.25 21C2.25 20.5858 2.58579 20.25 3 20.25H21C21.4142 20.25 21.75 20.5858 21.75 21C21.75 21.4142 21.4142 21.75 21 21.75H3C2.58579 21.75 2.25 21.4142 2.25 21Z" fill="black"/>
<path fill-rule="evenodd" clip-rule="evenodd" d="M16.3474 2.25C16.5464 2.24996 16.7373 2.32903 16.878 2.46979L20.5304 6.12386C20.8232 6.41672 20.8232 6.89142 20.5304 7.18429L10.189 17.5302C10.0484 17.6709 9.85756 17.75 9.65859 17.75H6C5.58579 17.75 5.25 17.4142 5.25 17V13.3599C5.25 13.1612 5.32889 12.9705 5.46935 12.8299L15.8169 2.46999C15.9575 2.32918 16.1484 2.25004 16.3474 2.25ZM16.3477 4.06109L6.75 13.6703V16.25H9.34784L18.9396 6.65407L16.3477 4.06109Z" fill="black"/>
<path fill-rule="evenodd" clip-rule="evenodd" d="M12.7197 5.46967C13.0126 5.17678 13.4874 5.17678 13.7803 5.46967L17.5303 9.21967C17.8232 9.51256 17.8232 9.98744 17.5303 10.2803C17.2374 10.5732 16.7626 10.5732 16.4697 10.2803L12.7197 6.53033C12.4268 6.23744 12.4268 5.76256 12.7197 5.46967Z" fill="black"/>
</svg>
