<svg width="24" height="24" viewBox="0 0 24 24" fill="none" xmlns="http://www.w3.org/2000/svg">
<path d="M11.0767 2.21994C11.4183 1.39865 12.5817 1.39865 12.9233 2.21994L14.9395 7.06736C15.0835 7.4136 15.4091 7.65017 15.7829 7.68013L21.0161 8.09968C21.9027 8.17076 22.2623 9.27727 21.5867 9.85594L17.5996 13.2713C17.3148 13.5153 17.1904 13.8981 17.2774 14.2628L18.4956 19.3695C18.702 20.2348 17.7607 20.9186 17.0016 20.455L12.5213 17.7184C12.2012 17.5229 11.7988 17.5229 11.4788 17.7184L6.9984 20.455C6.23931 20.9186 5.29805 20.2348 5.50444 19.3695L6.72258 14.2628C6.80959 13.8981 6.68521 13.5153 6.40043 13.2713L2.41328 9.85594C1.73775 9.27727 2.09727 8.17076 2.98393 8.09968L8.21712 7.68013C8.59091 7.65017 8.91652 7.4136 9.06053 7.06736L11.0767 2.21994Z" fill="black"/>
</svg>
