<svg width="24" height="24" viewBox="0 0 24 24" fill="none" xmlns="http://www.w3.org/2000/svg">
<path fill-rule="evenodd" clip-rule="evenodd" d="M11.5315 2.41435C11.8054 2.19522 12.1946 2.19522 12.4685 2.41435L22.4685 10.4143C22.792 10.6731 22.8444 11.1451 22.5856 11.4685C22.3269 11.792 21.8549 11.8444 21.5315 11.5857L20.25 10.5605V19.5C20.25 20.7426 19.2426 21.75 18 21.75H6C4.75736 21.75 3.75 20.7426 3.75 19.5V10.5605L2.46852 11.5857C2.14507 11.8444 1.6731 11.792 1.41435 11.4685C1.15559 11.1451 1.20803 10.6731 1.53148 10.4143L4.03148 8.41435C4.03143 8.41438 4.03152 8.41431 4.03148 8.41435L11.5315 2.41435ZM5.25 9.36047L12 3.96047L18.75 9.36047V19.5C18.75 19.9142 18.4142 20.25 18 20.25H6C5.58578 20.25 5.25 19.9142 5.25 19.5V9.36047Z" fill="black"/>
<path fill-rule="evenodd" clip-rule="evenodd" d="M8.75 14.5C8.75 14.0858 9.08578 13.75 9.5 13.75H14.5C14.9142 13.75 15.25 14.0858 15.25 14.5V21C15.25 21.4142 14.9142 21.75 14.5 21.75H9.5C9.08578 21.75 8.75 21.4142 8.75 21V14.5ZM10.25 15.25V20.25H13.75V15.25H10.25Z" fill="black"/>
</svg>
