<svg width="24" height="24" viewBox="0 0 24 24" fill="none" xmlns="http://www.w3.org/2000/svg">
<path d="M11.7695 2.50827C11.8549 2.30295 12.145 2.30294 12.2304 2.50827L14.247 7.35495C14.499 7.96076 15.0686 8.37564 15.7226 8.42819L20.956 8.84714C21.1776 8.86491 21.2674 9.14192 21.0986 9.28659L17.1113 12.7016C16.613 13.1286 16.3955 13.7987 16.5478 14.437L17.7665 19.5434C17.8181 19.7597 17.5823 19.9308 17.3925 19.8149L12.912 17.0786C12.352 16.7365 11.6478 16.7365 11.0878 17.0786L6.60735 19.8149C6.41759 19.9307 6.18271 19.7597 6.2343 19.5434L7.45207 14.437C7.60433 13.7987 7.38692 13.1285 6.8886 12.7016L2.90129 9.28659C2.73241 9.14193 2.8222 8.86491 3.04387 8.84714L8.27727 8.42819C8.93133 8.37569 9.50086 7.96081 9.75285 7.35495L11.7695 2.50827Z" stroke="black" stroke-width="1.5"/>
</svg>
