<svg width="24" height="24" viewBox="0 0 24 24" fill="none" xmlns="http://www.w3.org/2000/svg">
<path fill-rule="evenodd" clip-rule="evenodd" d="M14.25 5.5C14.25 3.70507 15.7051 2.25 17.5 2.25C19.2949 2.25 20.75 3.70507 20.75 5.5C20.75 7.29493 19.2949 8.75 17.5 8.75C15.7051 8.75 14.25 7.29493 14.25 5.5ZM17.5 3.75C16.5335 3.75 15.75 4.5335 15.75 5.5C15.75 6.4665 16.5335 7.25 17.5 7.25C18.4665 7.25 19.25 6.4665 19.25 5.5C19.25 4.5335 18.4665 3.75 17.5 3.75Z" fill="black"/>
<path fill-rule="evenodd" clip-rule="evenodd" d="M3.25 12C3.25 10.2051 4.70507 8.75 6.5 8.75C8.29493 8.75 9.75 10.2051 9.75 12C9.75 13.7949 8.29493 15.25 6.5 15.25C4.70507 15.25 3.25 13.7949 3.25 12ZM6.5 10.25C5.5335 10.25 4.75 11.0335 4.75 12C4.75 12.9665 5.5335 13.75 6.5 13.75C7.4665 13.75 8.25 12.9665 8.25 12C8.25 11.0335 7.4665 10.25 6.5 10.25Z" fill="black"/>
<path fill-rule="evenodd" clip-rule="evenodd" d="M15.6415 6.39863C15.8561 6.75289 15.7429 7.21408 15.3886 7.42871L9.05807 11.2642C8.7038 11.4788 8.24262 11.3656 8.02798 11.0113C7.81334 10.6571 7.92654 10.1959 8.2808 9.98124L14.6114 6.1458C14.9656 5.93117 15.4268 6.04436 15.6415 6.39863Z" fill="black"/>
<path fill-rule="evenodd" clip-rule="evenodd" d="M8.02374 12.9004C8.23446 12.5438 8.69438 12.4255 9.05098 12.6362L15.7212 16.5777C16.0778 16.7885 16.1961 17.2484 15.9853 17.605C15.7746 17.9616 15.3147 18.0798 14.9581 17.8691L8.28789 13.9276C7.93128 13.7169 7.81302 13.257 8.02374 12.9004Z" fill="black"/>
<path fill-rule="evenodd" clip-rule="evenodd" d="M14.25 18.5C14.25 20.2949 15.7051 21.75 17.5 21.75C19.2949 21.75 20.75 20.2949 20.75 18.5C20.75 16.7051 19.2949 15.25 17.5 15.25C15.7051 15.25 14.25 16.7051 14.25 18.5ZM17.5 20.25C16.5335 20.25 15.75 19.4665 15.75 18.5C15.75 17.5335 16.5335 16.75 17.5 16.75C18.4665 16.75 19.25 17.5335 19.25 18.5C19.25 19.4665 18.4665 20.25 17.5 20.25Z" fill="black"/>
</svg>
