<svg width="24" height="24" viewBox="0 0 24 24" fill="none" xmlns="http://www.w3.org/2000/svg">
<path fill-rule="evenodd" clip-rule="evenodd" d="M20 15.75C20.4142 15.75 20.75 16.0858 20.75 16.5V19C20.75 21.0711 19.0711 22.75 17 22.75H15.75C15.3358 22.75 15 22.4142 15 22C15 21.5858 15.3358 21.25 15.75 21.25H17C18.2426 21.25 19.25 20.2426 19.25 19V16.5C19.25 16.0858 19.5858 15.75 20 15.75Z" fill="black"/>
<path fill-rule="evenodd" clip-rule="evenodd" d="M3.25 5C3.25 2.92893 4.92893 1.25 7 1.25H17C19.0711 1.25 20.75 2.92893 20.75 5V8C20.75 8.41421 20.4142 8.75 20 8.75C19.5858 8.75 19.25 8.41421 19.25 8V5C19.25 3.75736 18.2426 2.75 17 2.75H7C5.75736 2.75 4.75 3.75736 4.75 5V19C4.75 20.2426 5.75736 21.25 7 21.25H8C8.41421 21.25 8.75 21.5858 8.75 22C8.75 22.4142 8.41421 22.75 8 22.75H7C4.92893 22.75 3.25 21.0711 3.25 19V5Z" fill="black"/>
<path fill-rule="evenodd" clip-rule="evenodd" d="M7.25 8C7.25 7.58579 7.58579 7.25 8 7.25H15C15.4142 7.25 15.75 7.58579 15.75 8C15.75 8.41421 15.4142 8.75 15 8.75H8C7.58579 8.75 7.25 8.41421 7.25 8Z" fill="black"/>
<path fill-rule="evenodd" clip-rule="evenodd" d="M11.0281 22.5829C10.7062 22.3223 10.6564 21.85 10.9171 21.5281L19.4171 11.0281C19.6777 10.7062 20.15 10.6564 20.4719 10.9171C20.7938 11.1777 20.8436 11.65 20.5829 11.9719L12.0829 22.4719C11.8223 22.7938 11.35 22.8436 11.0281 22.5829Z" fill="black"/>
<path fill-rule="evenodd" clip-rule="evenodd" d="M7.25 12C7.25 11.5858 7.58579 11.25 8 11.25H12C12.4142 11.25 12.75 11.5858 12.75 12C12.75 12.4142 12.4142 12.75 12 12.75H8C7.58579 12.75 7.25 12.4142 7.25 12Z" fill="black"/>
</svg>
