<svg width="24" height="24" viewBox="0 0 24 24" fill="none" xmlns="http://www.w3.org/2000/svg">
<path d="M20.25 10.3633C20.2498 9.47239 19.5276 8.75019 18.6367 8.75H10.3633C9.47238 8.75019 8.75019 9.47237 8.75 10.3633V18.6367C8.75019 19.5276 9.47239 20.2498 10.3633 20.25H18.6367C19.5276 20.2498 20.2498 19.5276 20.25 18.6367V10.3633ZM16.25 5.4502V5.41406C16.25 4.49519 15.5048 3.75 14.5859 3.75H5.41406C4.49518 3.75 3.75 4.49517 3.75 5.41406V14.5859C3.75 15.5048 4.49519 16.25 5.41406 16.25H5.50879C5.9228 16.2502 6.25879 16.5859 6.25879 17C6.25879 17.4141 5.9228 17.7498 5.50879 17.75H5.41406C3.66676 17.75 2.25 16.3332 2.25 14.5859V5.41406C2.25 3.66673 3.66676 2.25 5.41406 2.25H14.5859C16.3332 2.25 17.75 3.66676 17.75 5.41406V5.4502C17.7499 5.86432 17.4141 6.2002 17 6.2002C16.5859 6.2002 16.2501 5.86432 16.25 5.4502ZM21.75 18.6367C21.7498 20.3561 20.356 21.7498 18.6367 21.75H10.3633C8.64396 21.7498 7.25019 20.356 7.25 18.6367V10.3633C7.25019 8.64393 8.64397 7.25019 10.3633 7.25H18.6367C20.356 7.25019 21.7498 8.64396 21.75 10.3633V18.6367Z" fill="black"/>
</svg>
