<svg width="24" height="24" viewBox="0 0 24 24" fill="none" xmlns="http://www.w3.org/2000/svg">
<path fill-rule="evenodd" clip-rule="evenodd" d="M2.25 11.5C2.25 11.0858 2.58579 10.75 3 10.75H21C21.4142 10.75 21.75 11.0858 21.75 11.5C21.75 14.2529 20.6628 16.75 18.9013 18.5592C18.453 19.0196 17.9609 19.4356 17.4316 19.8002C17.2108 19.9522 16.9835 20.0954 16.7502 20.229L16.75 20.9991C16.75 21.198 16.671 21.3897 16.5303 21.5303C16.3897 21.671 16.1989 21.75 16 21.75H8C7.80039 21.75 7.60901 21.6704 7.46824 21.5289C7.32747 21.3874 7.24893 21.1956 7.25001 20.9959L7.25414 20.2315C7.02447 20.1001 6.80058 19.9595 6.58294 19.8101C6.04815 19.4433 5.55109 19.0238 5.09869 18.5592C3.33717 16.75 2.25 14.2529 2.25 11.5ZM16.7507 19.7928C16.7507 19.7926 16.7507 19.7926 16.7507 19.7928V19.7928ZM3.78169 12.25C3.95594 14.3019 4.83831 16.1416 6.17339 17.5127C6.55752 17.9073 6.97894 18.2628 7.43151 18.5732C7.7242 18.774 8.0299 18.956 8.34696 19.1175C8.5996 19.2462 8.75808 19.5063 8.75655 19.7898L8.75406 20.25H15.2502L15.2505 19.8338L15.2506 19.7929L15.2507 19.7789L15.2508 19.7697L15.2512 19.7575C15.2512 19.7558 15.2513 19.7521 15.2516 19.7472C15.2517 19.7448 15.2518 19.7422 15.252 19.7393L15.2537 19.7153C15.255 19.7025 15.2606 19.6611 15.2658 19.6328C15.3112 19.4089 15.4563 19.2179 15.6597 19.1141C15.9789 18.9512 16.2864 18.7675 16.5808 18.5648C17.0287 18.2563 17.446 17.9037 17.8266 17.5127C19.1617 16.1416 20.0441 14.3019 20.2183 12.25H3.78169Z" fill="black"/>
<path fill-rule="evenodd" clip-rule="evenodd" d="M12.5188 5.10146C12.3167 5.4222 11.9072 5.54173 11.5644 5.3801C11.5643 5.38007 11.5644 5.38013 11.5644 5.3801C11.5643 5.38005 11.5633 5.37958 11.5632 5.37953L11.5514 5.37418C11.5402 5.36909 11.5219 5.36093 11.4973 5.3503C11.4478 5.32901 11.3731 5.29802 11.2784 5.26211C11.0877 5.18985 10.8219 5.10006 10.5211 5.02883C9.88249 4.87761 9.2453 4.84852 8.80434 5.05738C8.40136 5.24824 8.15397 5.65246 8.01102 6.12641C7.94245 6.35373 7.90725 6.56868 7.88959 6.7276C7.88085 6.80618 7.87667 6.86872 7.87467 6.90933C7.87368 6.92958 7.87324 6.94418 7.87305 6.9524L7.87291 6.95964L7.87291 6.95859L7.87292 6.95736C7.87292 6.95815 7.87291 6.95885 7.87291 6.95964C7.87208 7.17793 7.77617 7.38518 7.61014 7.52705C7.44361 7.66936 7.22319 7.73173 7.00681 7.69782L6.99594 7.69626C6.98535 7.69478 6.96781 7.69243 6.94405 7.68959C6.89645 7.68389 6.82439 7.67626 6.73363 7.66965C6.5508 7.65632 6.299 7.64763 6.02238 7.6651C5.43276 7.70234 4.89143 7.84866 4.57787 8.14568C4.31736 8.39246 4.21988 8.82487 4.25759 9.36072C4.27509 9.60939 4.31943 9.83805 4.36035 10.006C4.38058 10.0891 4.39938 10.1549 4.41247 10.198C4.419 10.2195 4.42405 10.2353 4.42708 10.2445L4.42996 10.2531L4.42962 10.2522C4.56682 10.6428 4.36154 11.0707 3.97094 11.2082C3.58021 11.3457 3.15201 11.1404 3.01452 10.7496L3.722 10.5007C3.01452 10.7496 3.0146 10.7499 3.01452 10.7496L3.01378 10.7475L3.0128 10.7447L3.01013 10.7369L3.00213 10.713C2.9957 10.6934 2.98714 10.6667 2.97706 10.6334C2.95694 10.5671 2.93057 10.4743 2.90297 10.3611C2.84824 10.1364 2.7863 9.82141 2.76129 9.46602C2.71398 8.79376 2.78654 7.77642 3.5463 7.05671C4.25302 6.38725 5.2421 6.21139 5.92784 6.16809C6.11891 6.15602 6.29909 6.15355 6.46072 6.15639C6.48867 6.0129 6.52573 5.85636 6.57492 5.69326C6.77206 5.03964 7.20487 4.1552 8.16226 3.70175C9.08166 3.26628 10.1449 3.39827 10.8667 3.5692C11.1591 3.63844 11.4217 3.72058 11.6341 3.79526C11.8124 3.58847 12.0541 3.33885 12.3536 3.10143C13.0491 2.55017 14.1424 2.00463 15.4811 2.36697C16.8033 2.72486 17.4594 3.67818 17.7696 4.47593C17.8884 4.78129 17.9604 5.07129 18.0044 5.31163C18.1569 5.33925 18.3291 5.37775 18.5133 5.43146C19.1573 5.61916 19.9959 6.00706 20.6344 6.81349C21.3449 7.71089 21.3097 8.78625 21.1647 9.51873C21.0899 9.89693 20.9787 10.2235 20.8872 10.4546C20.8411 10.571 20.7991 10.6655 20.7676 10.7329C20.7518 10.7667 20.7385 10.7938 20.7287 10.8136L20.7164 10.8379L20.7123 10.8458L20.7108 10.8486L20.7102 10.8498C20.7101 10.85 20.7097 10.8508 20.0464 10.5007L20.7097 10.8508C20.5163 11.2171 20.0626 11.3573 19.6963 11.164C19.3307 10.971 19.1903 10.5186 19.382 10.1527C19.3824 10.152 19.3828 10.1513 19.3831 10.1506L20.013 10.4831C19.3831 10.1506 19.3832 10.1504 19.3831 10.1506C19.3828 10.1513 19.3824 10.152 19.382 10.1527L19.3866 10.1437C19.3911 10.1346 19.3988 10.1189 19.4089 10.0973C19.4292 10.0539 19.4589 9.98737 19.4925 9.90246C19.5605 9.73084 19.6406 9.49361 19.6933 9.22748C19.8034 8.67131 19.7682 8.13585 19.4584 7.74462C19.0767 7.26244 18.5549 7.00599 18.0936 6.87153C17.8658 6.80514 17.6641 6.77199 17.5218 6.75565C17.4511 6.74753 17.3963 6.7437 17.3619 6.74191C17.3447 6.74102 17.3327 6.74064 17.3265 6.74049L17.3224 6.7404L17.3238 6.7404L17.3252 6.7404C17.324 6.7404 17.3236 6.7404 17.3224 6.7404C16.9112 6.73831 16.5777 6.40529 16.5757 5.99405C16.5757 5.99467 16.5757 5.99448 16.5757 5.99405C16.5757 5.99316 16.5757 5.99227 16.5757 5.99138C16.5757 5.99126 16.5757 5.9915 16.5757 5.99138C16.5757 5.99227 16.5757 5.99316 16.5757 5.99405L16.5755 5.98547C16.5752 5.97572 16.5746 5.9583 16.5731 5.93419C16.5702 5.88579 16.5639 5.81142 16.551 5.7186C16.5248 5.53074 16.4727 5.27955 16.3716 5.01964C16.1718 4.50573 15.8075 4.0093 15.0892 3.81488C14.3874 3.6249 13.7802 3.88476 13.2853 4.27697C13.0405 4.47106 12.844 4.68298 12.7083 4.84829C12.6411 4.93008 12.5907 4.99819 12.5584 5.04372C12.5423 5.06643 12.5308 5.08334 12.5242 5.0933L12.5181 5.10258L12.5188 5.10146ZM17.3257 5.9904L16.5757 5.99138C16.5757 5.99126 16.5757 5.9915 16.5757 5.99138C16.5757 5.99108 16.5757 5.9904 17.3257 5.9904ZM7.12292 6.95686C7.00677 7.69254 7.00663 7.69776 7.00681 7.69782C7.00665 7.6978 7.00697 7.69785 7.00681 7.69782L7.12292 6.95686ZM7.12292 6.95686C7.87292 6.95687 7.87292 6.95712 7.87292 6.95736C7.87292 6.9572 7.87292 6.95753 7.87292 6.95736L7.12292 6.95686ZM7.00681 7.69782C7.00665 7.6978 7.00697 7.69785 7.00681 7.69782V7.69782ZM4.42996 10.2531C4.43005 10.2534 4.43017 10.2537 4.42996 10.2531V10.2531Z" fill="black"/>
</svg>
